<mxfile host="app.diagrams.net" modified="2023-11-09T14:46:44.443Z" agent="Mozilla/5.0 (Windows NT 10.0; Win64; x64) AppleWebKit/537.36 (KHTML, like Gecko) Chrome/119.0.0.0 Safari/537.36 Edg/119.0.0.0" etag="z0_Xk5GYv3o_v8CFyx1K" version="22.1.0" type="github">
  <diagram name="Page-1" id="e7e014a7-5840-1c2e-5031-d8a46d1fe8dd">
    <mxGraphModel dx="2167" dy="392" grid="1" gridSize="10" guides="1" tooltips="1" connect="1" arrows="1" fold="1" page="1" pageScale="1" pageWidth="1169" pageHeight="826" background="none" math="0" shadow="0">
      <root>
        <mxCell id="0" />
        <mxCell id="1" parent="0" />
        <mxCell id="2" value="Usuario" style="swimlane;whiteSpace=wrap" parent="1" vertex="1">
          <mxGeometry x="-380" y="90" width="780" height="1060" as="geometry" />
        </mxCell>
        <mxCell id="e_QtQZqQJ1IxmAHYs00g-59" style="edgeStyle=orthogonalEdgeStyle;rounded=0;orthogonalLoop=1;jettySize=auto;html=1;exitX=0.5;exitY=1;exitDx=0;exitDy=0;entryX=0.5;entryY=0;entryDx=0;entryDy=0;" edge="1" parent="2" source="8" target="10">
          <mxGeometry relative="1" as="geometry" />
        </mxCell>
        <mxCell id="8" value="acessa a págia de cadastro" style="" parent="2" vertex="1">
          <mxGeometry x="300" y="360" width="110" height="50" as="geometry" />
        </mxCell>
        <mxCell id="10" value="" style="" parent="2" vertex="1">
          <mxGeometry x="70" y="420" width="110" height="50" as="geometry" />
        </mxCell>
        <mxCell id="e_QtQZqQJ1IxmAHYs00g-41" value="acesso a pagina Login" style="text;html=1;align=center;verticalAlign=middle;resizable=0;points=[];autosize=1;strokeColor=none;fillColor=none;" vertex="1" parent="2">
          <mxGeometry x="130" y="50" width="140" height="30" as="geometry" />
        </mxCell>
        <mxCell id="e_QtQZqQJ1IxmAHYs00g-44" style="edgeStyle=orthogonalEdgeStyle;rounded=0;orthogonalLoop=1;jettySize=auto;html=1;exitX=0.5;exitY=1;exitDx=0;exitDy=0;entryX=0.408;entryY=0.06;entryDx=0;entryDy=0;entryPerimeter=0;" edge="1" parent="2" target="7">
          <mxGeometry relative="1" as="geometry">
            <mxPoint x="125" y="130.0000000000001" as="sourcePoint" />
            <Array as="points">
              <mxPoint x="115" y="130" />
              <mxPoint x="116" y="130" />
            </Array>
          </mxGeometry>
        </mxCell>
        <mxCell id="e_QtQZqQJ1IxmAHYs00g-51" style="edgeStyle=orthogonalEdgeStyle;rounded=0;orthogonalLoop=1;jettySize=auto;html=1;exitX=0;exitY=0.5;exitDx=0;exitDy=0;entryX=1;entryY=0.5;entryDx=0;entryDy=0;" edge="1" parent="2" target="8">
          <mxGeometry relative="1" as="geometry">
            <mxPoint x="1018.63" y="280" as="sourcePoint" />
            <mxPoint x="440.00000000000034" y="433.94999999999993" as="targetPoint" />
            <Array as="points">
              <mxPoint x="740" y="280" />
              <mxPoint x="740" y="385" />
            </Array>
          </mxGeometry>
        </mxCell>
        <mxCell id="e_QtQZqQJ1IxmAHYs00g-69" value="Actor" style="shape=umlActor;verticalLabelPosition=bottom;verticalAlign=top;html=1;outlineConnect=0;" vertex="1" parent="2">
          <mxGeometry x="70" y="70" width="30" height="60" as="geometry" />
        </mxCell>
        <mxCell id="e_QtQZqQJ1IxmAHYs00g-72" value="" style="edgeStyle=orthogonalEdgeStyle;rounded=0;orthogonalLoop=1;jettySize=auto;html=1;" edge="1" parent="2" source="e_QtQZqQJ1IxmAHYs00g-68" target="e_QtQZqQJ1IxmAHYs00g-71">
          <mxGeometry relative="1" as="geometry" />
        </mxCell>
        <mxCell id="e_QtQZqQJ1IxmAHYs00g-68" value="Actor" style="shape=umlActor;verticalLabelPosition=bottom;verticalAlign=top;html=1;outlineConnect=0;" vertex="1" parent="2">
          <mxGeometry x="590" y="50" width="30" height="60" as="geometry" />
        </mxCell>
        <mxCell id="7" value="Fornece as credenciais e envia o formulario" style="" parent="2" vertex="1">
          <mxGeometry x="110" y="240" width="260" height="50" as="geometry" />
        </mxCell>
        <mxCell id="e_QtQZqQJ1IxmAHYs00g-71" value="" style="whiteSpace=wrap;html=1;verticalAlign=top;" vertex="1" parent="2">
          <mxGeometry x="450" y="190" width="120" height="60" as="geometry" />
        </mxCell>
        <mxCell id="3" value="Sistema" style="swimlane;whiteSpace=wrap;startSize=23;" parent="1" vertex="1">
          <mxGeometry x="590" y="90" width="1140" height="900" as="geometry" />
        </mxCell>
        <mxCell id="e_QtQZqQJ1IxmAHYs00g-49" style="edgeStyle=orthogonalEdgeStyle;rounded=0;orthogonalLoop=1;jettySize=auto;html=1;exitX=0.5;exitY=1;exitDx=0;exitDy=0;entryX=0.5;entryY=0;entryDx=0;entryDy=0;" edge="1" parent="3" source="15" target="e_QtQZqQJ1IxmAHYs00g-47">
          <mxGeometry relative="1" as="geometry" />
        </mxCell>
        <mxCell id="15" value="verifica as credienciais do usuario" style="" parent="3" vertex="1">
          <mxGeometry x="20" y="102" width="240" height="50" as="geometry" />
        </mxCell>
        <mxCell id="e_QtQZqQJ1IxmAHYs00g-47" value="permite acesso a página &quot;Home&quot;" style="" vertex="1" parent="3">
          <mxGeometry x="20.5" y="212" width="240" height="50" as="geometry" />
        </mxCell>
        <mxCell id="e_QtQZqQJ1IxmAHYs00g-50" style="edgeStyle=orthogonalEdgeStyle;rounded=0;orthogonalLoop=1;jettySize=auto;html=1;exitX=1;exitY=0.5;exitDx=0;exitDy=0;entryX=-0.019;entryY=0.3;entryDx=0;entryDy=0;entryPerimeter=0;" edge="1" parent="1" source="7" target="15">
          <mxGeometry relative="1" as="geometry" />
        </mxCell>
      </root>
    </mxGraphModel>
  </diagram>
</mxfile>
